<svg width="700" height="320" viewBox="0 0 700 320" fill="none" xmlns="http://www.w3.org/2000/svg">
<g clip-path="url(#clip0_415_356)">
<rect x="334.846" y="206.462" width="51.2308" height="8.53846" rx="4.26923" fill="white"/>
<rect x="334.846" y="189.385" width="71.1538" height="8.53846" rx="4.26923" fill="white"/>
<rect x="374.692" y="172.308" width="31.3077" height="8.53846" rx="4.26923" fill="white"/>
<rect x="334.846" y="172.308" width="31.3077" height="8.53846" rx="4.26923" fill="white"/>
<rect x="295" y="206.462" width="31.3077" height="8.53846" rx="4.26923" fill="white"/>
<rect x="295" y="189.385" width="31.3077" height="8.53846" rx="4.26923" fill="white"/>
<rect x="295" y="172.308" width="31.3077" height="8.53846" rx="4.26923" fill="white"/>
<rect x="295" y="155.23" width="91.0769" height="8.53846" rx="4.26923" fill="white"/>
<rect x="354.77" y="138.154" width="51.2308" height="8.53846" rx="4.26923" fill="white"/>
<rect x="295" y="138.154" width="51.2308" height="8.53846" rx="4.26923" fill="white"/>
<rect x="334.846" y="121.077" width="71.1538" height="8.53846" rx="4.26923" fill="white"/>
<rect x="295" y="121.077" width="31.3077" height="8.53846" rx="4.26923" fill="white"/>
<rect x="295" y="104" width="91.0769" height="8.53846" rx="4.26923" fill="white"/>
<path opacity="0.05" d="M684 0H16C7.16344 0 0 7.16344 0 16V304C0 312.837 7.16344 320 16 320H684C692.837 320 700 312.837 700 304V16C700 7.16344 692.837 0 684 0Z" fill="white"/>
<mask id="mask0_415_356" style="mask-type:alpha" maskUnits="userSpaceOnUse" x="0" y="0" width="700" height="320">
<path d="M684 0H16C7.16344 0 0 7.16344 0 16V304C0 312.837 7.16344 320 16 320H684C692.837 320 700 312.837 700 304V16C700 7.16344 692.837 0 684 0Z" fill="url(#paint0_diamond_415_356)"/>
</mask>
<g mask="url(#mask0_415_356)">
<g opacity="0.1">
<path d="M0 50H700" stroke="white" stroke-dasharray="4 4"/>
<path d="M0 82H700" stroke="white" stroke-dasharray="4 4"/>
<path d="M239 0V320" stroke="white" stroke-dasharray="4 4"/>
<path d="M271 0V320" stroke="white" stroke-dasharray="4 4"/>
<path d="M460 0V320" stroke="white" stroke-dasharray="4 4"/>
<path d="M428 0V320" stroke="white" stroke-dasharray="4 4"/>
<path d="M0 271H700" stroke="white" stroke-dasharray="4 4"/>
<path d="M0 239H700" stroke="white" stroke-dasharray="4 4"/>
<path d="M0 160H700" stroke="white"/>
<path d="M511 -1L189 321" stroke="white"/>
<path d="M511 321L189 -1" stroke="white"/>
<path d="M349.5 271C410.527 271 460 221.527 460 160.5C460 99.4725 410.527 50 349.5 50C288.473 50 239 99.4725 239 160.5C239 221.527 288.473 271 349.5 271Z" stroke="white"/>
</g>
</g>
</g>
<defs>
<radialGradient id="paint0_diamond_415_356" cx="0" cy="0" r="1" gradientUnits="userSpaceOnUse" gradientTransform="translate(350 160) rotate(-180) scale(450.5 434.005)">
<stop/>
<stop offset="0.695" stop-opacity="0"/>
</radialGradient>
<clipPath id="clip0_415_356">
<rect width="700" height="320" fill="white"/>
</clipPath>
</defs>
</svg>
